<svg width="94" height="94" viewBox="0 0 94 94" fill="none" xmlns="http://www.w3.org/2000/svg">
<g id="1486565571-microsoft-office-excel_81549 1">
<g id="Layer_x0020_1">
<path id="Vector" fill-rule="evenodd" clip-rule="evenodd" d="M51.1381 19.3655V74.0687L18.6145 68.4305V25.0037L51.1381 19.3655ZM52.6835 25.6805H74.2823C75.4761 25.6805 75.7052 25.915 75.7052 27.1033V66.3255C75.7052 67.5139 75.4761 67.7484 74.2823 67.7484H52.6835V64.05H60.9276V58.3692H52.6835V56.6639H60.9276V50.9777H52.6835V49.2724H60.9276V43.5863H52.6835V41.8809H60.9276V36.2001H52.6835V34.4948H60.9276V28.8087H52.6835V25.6805ZM11.1005 83.0962H82.9048L82.9155 11.2812H11.0899L11.1005 83.0962Z" fill="#1E7145"/>
<path id="Vector_2" fill-rule="evenodd" clip-rule="evenodd" d="M37.9912 36.5623L35.0282 43.3409L32.726 36.9726L29.0223 37.1378L32.6994 46.4158L28.5587 55.4912L32.1984 55.763L35.1188 49.2349L37.8366 56.1414L42.0253 56.3705L37.4849 46.3785L41.8281 36.2852L37.9912 36.5623Z" fill="#1E7145"/>
<path id="Vector_3" fill-rule="evenodd" clip-rule="evenodd" d="M62.6329 64.05H72.0121V58.3691H62.6329V64.05Z" fill="#1E7145"/>
<path id="Vector_4" fill-rule="evenodd" clip-rule="evenodd" d="M62.6329 56.6637H72.0121V50.9775H62.6329V56.6637Z" fill="#1E7145"/>
<path id="Vector_5" fill-rule="evenodd" clip-rule="evenodd" d="M62.6329 49.2721H72.0121V43.5859H62.6329V49.2721Z" fill="#1E7145"/>
<path id="Vector_6" fill-rule="evenodd" clip-rule="evenodd" d="M62.6329 34.4947H72.0121V28.8086H62.6329V34.4947Z" fill="#1E7145"/>
<path id="Vector_7" fill-rule="evenodd" clip-rule="evenodd" d="M62.6329 41.881H72.0121V36.2002H62.6329V41.881Z" fill="#1E7145"/>
</g>
</g>
</svg>
