<svg xmlns="http://www.w3.org/2000/svg" width="16" height="20" viewBox="0 0 16 20" fill="none">
  <path
    d="M10.8925 9.84211C12.3518 8.89474 13.342 7.21053 13.342 5.36842C13.342 2.42105 10.9446 0 8.02607 0C5.1075 0 2.7101 2.42105 2.7101 5.36842C2.7101 7.26316 3.70034 8.89474 5.15962 9.84211C2.13682 11 0 13.9474 0 17.3684C0 18.8421 1.14658 20 2.60586 20H13.3941C14.8534 20 16 18.8421 16 17.3684C16 13.9474 13.8632 11 10.8925 9.84211ZM4.11728 5.31579C4.11728 3.10526 5.88926 1.36842 8.02607 1.36842C10.1629 1.36842 11.9349 3.15789 11.9349 5.31579C11.9349 7.52632 10.1629 9.26316 8.02607 9.26316C5.88926 9.26316 4.11728 7.52632 4.11728 5.31579ZM13.4462 18.5789H2.658C1.98047 18.5789 1.40717 18 1.40717 17.3158C1.40717 13.6316 4.37786 10.6316 8.02607 10.6316C11.6743 10.6316 14.645 13.6316 14.645 17.3158C14.645 18.0526 14.1238 18.5789 13.4462 18.5789Z"
    fill="#195CDF" />
</svg>